<svg width="398" height="49" viewBox="0 0 398 49" fill="none" xmlns="http://www.w3.org/2000/svg">
<path d="M0.878004 47V1.176H13.838C17.678 1.176 20.9953 2.08266 23.79 3.896C26.5847 5.688 28.7287 8.248 30.222 11.576C31.7367 14.8827 32.494 18.8293 32.494 23.416V24.76C32.494 29.3253 31.7367 33.272 30.222 36.6C28.7287 39.928 26.5847 42.4987 23.79 44.312C20.9953 46.104 17.678 47 13.838 47H0.878004ZM9.358 39H13.678C17.0273 39 19.5447 37.8267 21.23 35.48C22.9153 33.112 23.758 29.592 23.758 24.92V23.256C23.758 18.584 22.9047 15.0747 21.198 12.728C19.5127 10.36 17.006 9.176 13.678 9.176H9.358V39ZM50.357 48.056C46.9223 48.056 43.9357 47.3413 41.397 45.912C38.8797 44.4613 36.917 42.424 35.509 39.8C34.1223 37.176 33.429 34.104 33.429 30.584V29.72C33.429 26.2213 34.1223 23.1707 35.509 20.568C36.917 17.9653 38.869 15.9387 41.365 14.488C43.8823 13.0373 46.805 12.312 50.133 12.312C53.141 12.312 55.7543 12.952 57.973 14.232C60.1917 15.4907 61.9197 17.272 63.157 19.576C64.3943 21.8587 65.013 24.5467 65.013 27.64C65.013 28.5147 64.981 29.3467 64.917 30.136C64.853 30.904 64.757 31.608 64.629 32.248H37.973V26.968H57.205V27.032C57.205 24.5787 56.5757 22.6587 55.317 21.272C54.0583 19.864 52.341 19.16 50.165 19.16C47.4983 19.16 45.3863 20.1093 43.829 22.008C42.2717 23.9067 41.493 26.52 41.493 29.848V30.456C41.493 33.7413 42.293 36.344 43.893 38.264C45.493 40.1627 47.6583 41.112 50.389 41.112C53.7383 41.112 56.1917 39.5227 57.749 36.344L64.789 39.608C63.445 42.36 61.5463 44.4613 59.093 45.912C56.6397 47.3413 53.7277 48.056 50.357 48.056ZM117.411 48.056C113.592 48.056 110.296 47.128 107.523 45.272C104.75 43.3947 102.616 40.7173 101.123 37.24C99.651 33.7627 98.915 29.6133 98.915 24.792V23.608C98.915 18.744 99.651 14.5627 101.123 11.064C102.616 7.544 104.728 4.84533 107.459 2.968C110.211 1.06933 113.486 0.119999 117.283 0.119999C121.102 0.119999 124.302 1.06933 126.883 2.968C129.464 4.84533 131.331 7.59733 132.483 11.224L124.771 14.072C124.152 12.024 123.235 10.52 122.019 9.56C120.824 8.6 119.278 8.12 117.379 8.12C114.2 8.12 111.758 9.44267 110.051 12.088C108.366 14.7333 107.523 18.52 107.523 23.448V24.952C107.523 29.88 108.376 33.6453 110.083 36.248C111.79 38.8293 114.254 40.12 117.475 40.12C120.078 40.12 122.083 39.2347 123.491 37.464C124.92 35.6933 125.635 33.176 125.635 29.912V28.408H116.163V21.272H133.603V28.376C133.603 34.648 132.195 39.5013 129.379 42.936C126.563 46.3493 122.574 48.056 117.411 48.056ZM140.234 44.024V13.4H147.338V20.824H147.722C148.725 18.0933 150.154 15.992 152.01 14.52C153.887 13.048 156.053 12.312 158.506 12.312C160.213 12.312 161.727 12.6533 163.05 13.336C164.373 13.9973 165.685 15.1067 166.986 16.664L161.674 22.872C160.693 21.784 159.743 21.016 158.826 20.568C157.909 20.12 156.853 19.896 155.658 19.896C153.311 19.896 151.509 20.7387 150.25 22.424C148.991 24.1093 148.362 26.52 148.362 29.656V44.024H140.234ZM133.002 47V40.6H159.242V47H133.002ZM133.642 19.768V13.4H143.978V19.768H133.642ZM182.385 48.056C179.185 48.056 176.348 47.32 173.873 45.848C171.42 44.3547 169.5 42.296 168.113 39.672C166.748 37.0267 166.065 33.9973 166.065 30.584V29.816C166.065 26.3813 166.748 23.352 168.113 20.728C169.5 18.104 171.42 16.0453 173.873 14.552C176.348 13.0587 179.185 12.312 182.385 12.312C185.585 12.312 188.412 13.0587 190.865 14.552C193.318 16.0453 195.238 18.104 196.625 20.728C198.012 23.352 198.705 26.3813 198.705 29.816V30.584C198.705 33.9973 198.012 37.0267 196.625 39.672C195.238 42.296 193.318 44.3547 190.865 45.848C188.412 47.32 185.585 48.056 182.385 48.056ZM182.385 40.6C184.817 40.6 186.748 39.6933 188.177 37.88C189.606 36.0453 190.321 33.5707 190.321 30.456V29.944C190.321 26.8293 189.606 24.3653 188.177 22.552C186.748 20.7173 184.817 19.8 182.385 19.8C179.953 19.8 178.022 20.7173 176.593 22.552C175.164 24.3653 174.449 26.8293 174.449 29.944V30.456C174.449 33.5707 175.164 36.0453 176.593 37.88C178.022 39.6933 179.953 40.6 182.385 40.6ZM221.496 48.056C217.229 48.056 213.923 46.872 211.576 44.504C209.229 42.1147 208.056 38.7547 208.056 34.424V4.568H216.44V33.848C216.44 36.088 216.909 37.7627 217.848 38.872C218.787 39.96 220.216 40.504 222.136 40.504C224.12 40.504 225.976 39.6933 227.704 38.072L231.864 44.248C229.027 46.7867 225.571 48.056 221.496 48.056ZM199.736 19.928V13.4H229.848V19.928H199.736ZM249.887 48.056C246.452 48.056 243.466 47.3413 240.927 45.912C238.41 44.4613 236.447 42.424 235.039 39.8C233.652 37.176 232.959 34.104 232.959 30.584V29.72C232.959 26.2213 233.652 23.1707 235.039 20.568C236.447 17.9653 238.399 15.9387 240.895 14.488C243.412 13.0373 246.335 12.312 249.663 12.312C252.671 12.312 255.284 12.952 257.503 14.232C259.722 15.4907 261.45 17.272 262.687 19.576C263.924 21.8587 264.543 24.5467 264.543 27.64C264.543 28.5147 264.511 29.3467 264.447 30.136C264.383 30.904 264.287 31.608 264.159 32.248H237.503V26.968H256.735V27.032C256.735 24.5787 256.106 22.6587 254.847 21.272C253.588 19.864 251.871 19.16 249.695 19.16C247.028 19.16 244.916 20.1093 243.359 22.008C241.802 23.9067 241.023 26.52 241.023 29.848V30.456C241.023 33.7413 241.823 36.344 243.423 38.264C245.023 40.1627 247.188 41.112 249.919 41.112C253.268 41.112 255.722 39.5227 257.279 36.344L264.319 39.608C262.975 42.36 261.076 44.4613 258.623 45.912C256.17 47.3413 253.258 48.056 249.887 48.056ZM301.773 47V1.176H310.317V38.936H331.213V47H301.773ZM344.948 48.056C342.708 48.056 340.735 47.608 339.028 46.712C337.343 45.816 336.02 44.568 335.06 42.968C334.121 41.368 333.652 39.5227 333.652 37.432V36.984C333.652 33.5493 334.836 30.808 337.204 28.76C339.593 26.712 342.761 25.688 346.708 25.688C348.393 25.688 349.961 25.848 351.412 26.168C352.863 26.488 354.185 26.9573 355.38 27.576V32.792C353.481 31.64 351.263 31.064 348.724 31.064C346.655 31.064 345.033 31.544 343.86 32.504C342.687 33.464 342.1 34.8293 342.1 36.6V36.984C342.1 38.584 342.601 39.832 343.604 40.728C344.607 41.6027 345.983 42.04 347.732 42.04C349.119 42.04 350.335 41.688 351.38 40.984C352.425 40.2587 353.236 39.256 353.812 37.976C354.409 36.696 354.708 35.2133 354.708 33.528V25.624C354.708 23.448 354.143 21.784 353.012 20.632C351.903 19.48 350.239 18.904 348.02 18.904C345.076 18.904 342.377 20.0987 339.924 22.488L335.38 17.624C338.857 14.0827 343.359 12.312 348.884 12.312C353.407 12.312 356.863 13.4427 359.252 15.704C361.663 17.9653 362.868 21.1653 362.868 25.304V47H354.9V42.488H354.644C353.684 44.2587 352.372 45.6347 350.708 46.616C349.044 47.576 347.124 48.056 344.948 48.056ZM385.051 48.056C382.896 48.056 380.955 47.512 379.227 46.424C377.52 45.336 376.155 43.8107 375.131 41.848H374.875V47H366.843V0.279999H375.227V18.168H375.483C376.635 16.2693 378.022 14.8187 379.643 13.816C381.286 12.8133 383.184 12.312 385.339 12.312C387.856 12.312 390.043 13.0373 391.899 14.488C393.776 15.9387 395.227 17.976 396.251 20.6C397.296 23.224 397.819 26.3067 397.819 29.848V30.552C397.819 34.0507 397.286 37.112 396.219 39.736C395.152 42.36 393.659 44.408 391.739 45.88C389.84 47.3307 387.611 48.056 385.051 48.056ZM382.331 40.984C384.55 40.984 386.278 40.0773 387.515 38.264C388.774 36.4293 389.403 33.8693 389.403 30.584V29.784C389.403 26.4773 388.784 23.928 387.547 22.136C386.31 20.3227 384.56 19.416 382.299 19.416C380.08 19.416 378.299 20.3653 376.955 22.264C375.632 24.1413 374.971 26.6907 374.971 29.912V30.456C374.971 33.6773 375.632 36.2373 376.955 38.136C378.299 40.0347 380.091 40.984 382.331 40.984Z" fill="#E0FBFC"/>
</svg>
